<svg xmlns="http://www.w3.org/2000/svg" xml:space="preserve" viewBox="0 0 1024 928">
  <path fill="#ffffff" d="M601.647095 555.321716c-11.856079-16.047485-23.49878-31.808593-35.385132-47.899597-2.181213 2.448761-1.8703 4.812256-1.87384 7.054077-.026246 16.660706-.176819 33.323731.069824 49.980713.072204 4.876038-1.771912 6.444946-6.374329 6.528259-11.373047.205811-11.380798.331421-11.382873-10.700866-.004944-26.324524-.005188-52.649079.005432-78.973603.002807-7.103424.390198-6.930694 7.23822-7.447814 7.457642-.563111 11.799561 2.645599 15.964661 8.523803 12.799438 18.064209 26.193847 35.707062 39.379455 53.496979.654236.882629 1.120423 2.112 2.671387 2.067871 1.387634-1.525391.744812-3.442322.749512-5.174927.047485-17.493957.015564-34.988098.025573-52.482177.003296-5.832123.461548-6.230439 6.34552-5.850007.664856.043 1.329041.102692 1.994568.125611 9.199158.317688 9.194458.316437 9.189331 9.3974-.014709 26.157867-.026245 52.315765-.036804 78.473602-.003174 7.779114 0 7.767883-7.545288 7.959045-1.496033.037842-3.00885.080262-4.47937.326416-3.15802.528565-5.456238-.607299-7.3125-3.156311-2.940613-4.037902-6.013245-7.979675-9.243347-12.248474zm-194.17218-6.896118c-1.930024-4.79779-5.091675-6.606933-9.956116-6.132324-3.627838.353882-7.320862.031555-10.984924.023254-7.298554-.01654-7.315796-.013061-7.395478 7.05597-.061981 5.495666-.193329 10.994567-.065704 16.486816.082703 3.55835-1.251801 5.203247-4.925873 5.192932-16.037933-.044861-13.170471.991821-13.250275-12.30011-.154968-25.814453-.074218-51.63034-.067871-77.445648.001465-6.020019.513794-6.476196 6.583252-6.473541 11.825043.005188 23.664887-.367523 35.471375.101318 14.324524.568817 26.993042 4.767822 33.580261 19.134277 6.548187 14.281434 2.021576 32.585694-10.824738 41.559937-4.501068 3.144287-3.970581 5.484985-1.37091 9.203125 4.673553 6.684265 9.071869 13.56134 13.558685 20.375305.805664 1.223572 1.975037 2.298706 1.887634 4.331177-2.894226 2.866272-6.759307.997314-10.160583 1.563904-6.054199 1.008545-9.963867-1.248169-12.658295-6.958435-2.542328-5.38794-6.10794-10.293091-9.42044-15.717957m-28.386445-35.93866c.00113 3.157776.035737 6.315979-.006927 9.473206-.035584 2.631531 1.101776 4.105103 3.827637 4.067261 7.639862-.106201 15.318847.19519 22.906341-.497559 5.869538-.535827 11.57898-2.685425 14.137207-8.759521 4.636322-11.008148 1.82544-23.861969-15.392944-25.331024-6.932495-.591462-13.954773-.058442-20.930634-.24466-3.581359-.095611-4.615326 1.560822-4.531219 4.842346.131988 5.148255.006439 10.303101-.009461 16.449951zm-47.559997-163.015075c12.665497-8.320435 24.176697-17.706574 37.055878-25.065796 36.519622-20.867432 79.044403-16.02063 109.950225 12.663299 7.562043 7.018372 14.81073 14.375794 22.147919 21.633515 1.088043 1.076294 2.831848 1.988006 1.832794 4.820831-7.310272-4.426391-14.265899-9.002685-20.785247-14.236175-10.936799-8.779694-22.118592-17.069001-35.672761-21.591187-11.799346-3.936706-23.844238-3.992401-36.015777-3.124786-19.696381 1.404052-35.417664 11.485046-50.584076 22.935577-8.226685 6.21106-16.641693 12.184784-25.151032 18.003418-3.563507 2.436707-3.429046 4.264221-.332397 6.863648 13.514008 11.343811 26.463776 23.427307 40.539307 34.01831 19.247314 14.482422 41.205932 19.251801 65.130157 15.004089 13.230927-2.349121 25.046234-7.68991 36.116669-15.038848 1.759277-1.167847 3.45227-2.684174 5.893982-2.201539 1.416229 2.137116-.392548 2.927979-1.576264 3.9805-20.047332 17.825226-43.39209 25.928528-70.216735 24.02417-15.342988-1.089203-29.459656-6.034302-41.899933-14.739319-19.778382-13.839813-37.954987-29.770691-56.448365-45.262177-4.785003-4.008331-4.73529-4.931152.196503-8.570465 6.429016-4.744171 13.005005-9.289245 19.819153-14.117065zM457.929138 525c.003418-15.320007.062409-30.140381-.029205-44.959808-.023285-3.767823.846252-5.891266 5.279449-5.866669 19.286682.107025 38.576386.07782 57.861267-.178192 4.59552-.060974 6.502625.967926 6.442139 6.056793-.131042 11.026001.159241 11.027405-10.656433 10.996643-11.489838-.032715-22.981293.041229-34.468658-.143219-4.390564-.070496-6.524415 1.37146-6.174286 6.059265.272033 3.642487.275818 7.342468-.02887 10.981079-.382751 4.571503 1.31604 6.156586 5.949707 6.029572 10.982544-.300842 21.977692-.172363 32.967712-.157044 6.817688.009522 7.109131.34375 7.134766 6.954346.036804 9.495606.036804 9.505249-9.573181 9.512879-9.991272.007873-19.985962.147583-29.97226-.077393-4.631744-.104248-6.884155 1.350769-6.496551 6.276428.260345 3.308777.019501 6.656616.011536 9.986939-.018128 7.594665-.015992 7.603454 7.819366 7.595703 12.988525-.012757 25.980865.135315 38.963654-.148499 4.798156-.104919 6.487426 1.402771 6.353637 6.284912-.264587 9.651551-.032165 9.661805-9.638794 10.312439-19.297729 1.307007-38.600738-.477173-57.901642.084595-3.970367.115601-3.802551-2.910461-3.806335-5.635437-.018341-13.15509-.02594-26.310242-.037018-39.965332zm-185.188537 28.996704c-.01709-24.659546.092285-48.821289-.154358-72.979401-.050873-4.982482 1.265411-6.548492 6.423767-6.471466 19.323242.288514 38.654876.157105 57.981262-.032745 3.532806-.034698 4.678986 1.244629 4.907013 4.551727.789337 11.447724.486633 11.875916-10.941345 11.898774-11.663605.023315-23.330414.148529-34.989319-.088929-4.361176-.088867-6.048279 1.369812-5.753571 5.748444.279145 4.146698.238129 8.337219.003784 12.489624-.215362 3.815857 1.487732 4.905884 5.033204 4.866638 11.662231-.129089 23.329315.084534 34.988922-.133484 4.500488-.084045 6.256469 1.364807 6.112915 6.037903-.337097 10.976746 1.279419 10.375183-10.138397 10.368652-10.164063-.005798-20.331208.136353-30.490754-.079467-4.158355-.088257-5.699737 1.447265-5.503051 5.532837.216064 4.487854.294952 9.016235-.058686 13.488037-.343109 4.338256 1.624359 5.505737 5.496888 5.42865 12.982116-.25824 25.966827-.386841 38.950561-.562989 8.690979-.11792 8.691223-.116333 8.653931 8.8125-.004151.999695-.069275 2.002869-.008942 2.998535.191498 3.159607-1.219696 4.511475-4.421722 4.500061-20.66095-.073059-41.322205-.084899-61.983277-.054382-3.062103.004517-4.124634-1.487488-4.084655-4.323364.054016-3.831482-.010346-7.664673-.02417-11.996155zm538.264404-63.589355c-6.159363.039154-11.821777.174621-17.480164.07727-3.052978-.05246-4.184997 1.304749-4.146911 4.202576.063476 4.827789.152649 9.66391-.05774 14.483917-.165832 3.798492 1.566346 4.891144 5.085755 4.857086 11.321594-.109802 22.64508-.046997 33.967773-.005981 7.079346.025635 7.246949.309082 7.066773 7.296936-.213623 8.282226 1.607422 8.994873-9.124512 8.908569-10.489624-.08435-20.982422.096497-31.469849-.078552-3.870727-.064636-5.514221 1.466309-5.477844 5.22998.048279 4.994507.067322 9.991761-.04718 14.984436-.061218 2.667725.745483 3.785645 3.689575 3.888855 14.313599.50177 28.625.539917 42.935303.138916 5.821045-.163024 6.349853.088013 6.325867 5.934082-.043518 10.608277 1.318054 9.977601-9.888123 9.988038-17.983398.016662-35.966858.020874-53.950256-.004029-6.05896-.008423-6.511841-.467773-6.518738-6.570801-.031067-27.641174.049438-55.282867-.129944-82.922973-.030273-4.664978 1.118042-6.337189 6.165772-6.246857 18.643615.333618 37.29663.139862 55.946105.149506 6.759827.003509 7.061768.311371 7.024415 7.007721-.048401 8.679229-.048401 8.679382-8.935853 8.679962-6.827148.000427-13.654357.000458-20.980224.001343zm-571.034577 4.607055c-7.732589-3.473205-15.347442-5.635254-23.568511-4.80719-6.666993.67157-10.285981 3.100403-11.073578 7.492218-.899079 5.01352 1.713775 9.012818 7.963989 11.778687 8.228577 3.641327 17.115387 5.40213 25.404938 8.967071 10.510589 4.520203 16.772812 11.87262 16.911728 23.537415.136001 11.418335-5.135651 19.580749-15.46576 24.676147-16.81195 8.292542-44.474273 4.02118-57.607559-9.020446-1.670013-1.658326-2.159988-3.25409-1.067062-5.320801.15567-.294312.287506-.601685.451019-.891419 1.788406-3.168518 2.124634-7.880371 5.327118-9.333557 3.923141-1.780212 5.96492 3.20929 8.978851 4.964783 9.461609 5.510986 19.193497 9.139404 30.383652 6.66333 5.025467-1.111938 8.617493-3.828064 9.633728-8.911987 1.002975-5.017578-2.290772-8.168457-6.071442-10.524414-5.720001-3.564453-12.432007-4.64679-18.677398-6.908142-4.219635-1.527893-8.536393-2.915284-12.523316-4.931824-8.594223-4.346741-13.117554-11.418091-13.229263-21.2211-.114441-10.041901 3.846283-17.780518 12.726349-22.640198 13.469314-7.371124 27.422317-7.03244 41.563858-2.161865 3.614395 1.244812 7.286499 2.376282 10.541 4.466614.974579.626007 2.503281 1.21347 2.710724 2.075439 1.307282 5.432099-2.992905 9.112763-4.816421 13.529145-1.337464 3.239288-3.934281.640319-5.921875-.193787-.76561-.321289-1.489991-.740814-2.574769-1.284119zm354.866486-142.193817c23.804871-14.174805 38.284668-34.461883 43.210571-61.458038 2.627442-14.399597 5.14618-28.8237 8.117798-43.153015.925659-4.463654-.625122-5.317856-4.441406-5.168488-19.285706.754868-38.573486 1.455597-57.862061 2.131699-2.274597.079727-4.631469.74414-6.891723-.541016-.046631-2.666626 2.228882-2.556686 3.775085-3.109329 10.431519-3.72847 21.42627-4.753708 32.266663-6.388382 14.142395-2.132629 28.356933-3.787186 42.540405-5.647827 4.991028-.654755 6.168945.293793 5.547302 5.260666-2.809631 22.447754-4.737121 45.196441-10.58844 66.980621-9.730285 36.225555-32.659362 60.469971-70.431701 68.39032-18.05481 3.785858-36.444519 1.688446-54.694153 1.88266-.574524.006134-1.154114-.459717-2.139099-.879181 1.828674-2.824982 4.540466-2.804016 6.998962-3.209992 14.930115-2.465332 29.890442-4.758331 44.787903-7.405853 6.91626-1.229095 13.36908-4.013489 19.803894-7.684845z"/>
  <path fill="#ffffff" d="M580.507935 414.447845c27.914733 8.731659 53.619812 4.936554 77.444946-11.352325 12.375549-8.460968 24.617554-17.121155 37.109375-25.405609 3.868957-2.565857 3.703125-4.377106.451233-7.110199-16.312256-13.709717-30.488465-29.79599-47.489685-42.746033-.514283-.391754-.981079-.925934-.569641-2.07074 2.24292-1.02893 4.172302.467865 6.14978 1.395142 10.201599 4.78363 18.800293 11.962219 27.692261 18.685974 10.885437 8.231201 21.699218 16.557343 32.520263 24.873352 4.952637 3.806183 5.112671 5.291504.125244 9.020081-18.79364 14.049927-37.14685 28.788727-57.333374 40.8078-17.136169 10.202972-36.114257 12.85849-55.893554 11.246002-24.097229-1.964477-42.15741-14.86911-58.491638-31.229797-6.109925-6.119751-12.413758-12.045593-18.594727-18.095093-1.250977-1.224396-2.939758-2.241699-2.901733-4.35733 2.3479-2.234528 3.763977-.037232 5.187561.985748 11.080627 7.962372 22.161377 15.927124 33.118347 24.057953 6.487427 4.814148 13.546631 8.431549 21.475342 11.295074zM385.335144 288.900574c-.441956 3.154114.753326 6.087921-1.169342 8.792328-2.789368-.946259-2.906799-3.267884-3.226807-5.264008-3.316864-20.689789-6.957885-41.334091-9.150909-62.187607-.569397-5.414291.665924-6.522781 6.208588-5.66452 20.702697 3.205688 41.512878 5.868866 62.067535 9.84729 41.34137 8.001801 72.881592 42.098282 74.07428 85.970413.32959 12.121369.242981 24.254914.252014 36.382965.001221 1.564911.283325 3.37381-1.548096 4.878998-2.412658-1.15509-2.502685-3.662994-2.837829-5.753021-2.106415-13.135895-3.723114-26.358978-6.14972-39.433014-4.771881-25.709961-18.950622-44.778412-41.317321-58.307129-12.94748-7.831421-27.27414-10.241867-41.664856-12.852646-9.479676-1.719772-19.021698-3.107879-28.352478-5.578094-7.250977-1.919632-8.113617-.807953-7.83255 6.729232.521118 13.973908.474121 27.969025.647491 42.438813z"/>
  <path fill="#ffffff" d="M548.015869 337.982635c-5.27948 3.252533-8.75415 8.51944-13.63623 12.219666-1.380371 1.046204-2.326905 2.994446-4.624634 2.049255-1.198792-1.968048.489807-3.032074 1.308044-4.360473 6.369934-10.341248 14.541443-19.404724 20.489868-30.105988 8.92096-16.048797 10.453797-33.096435 8.791565-50.819336-1.712646-18.260742-10.733398-33.278869-21.06018-47.788406-6.662537-9.361115-12.982788-18.970505-19.282166-28.58281-2.077148-3.169555-3.779114-3.664733-6.477722-.719451-13.82608 15.08995-27.746002 30.093887-41.609283 45.14981-.925171 1.0047-1.692231 2.108872-3.876496 1.358719-.128631-4.843139 3.025421-8.572662 5.488831-12.155838 12.54837-18.252334 26.214996-35.691086 39.664367-53.283401 3.574219-4.675171 5.081177-4.451569 8.573304.355194 11.743957 16.164856 23.575195 32.266174 35.367004 48.396255 23.473999 32.110031 24.245972 81.004273-4.811157 112.641266-1.458008 1.587464-2.677979 3.393555-4.165711 5.38147-.15686.2836-.139404.264068-.139404.264068zM422.424927 403.3172c-15.83429 1.138488-29.549195-3.125153-42.082215-12.184815-7.710388-5.573547-14.8125-11.849579-22.287841-17.682831-2.456757-1.917114-3.95224-4.1044-.793976-6.413665 12.185028-8.909272 23.514984-19.154938 38.213897-24.146241 12.679963-4.305755 25.183411-3.689575 37.607819.808167 16.582886 6.003204 30.330292 16.37738 43.004425 28.317078 5.569092 5.246337 10.945954 10.69754 16.369965 16.096099.913666.909333 1.998352 1.84198 1.656006 3.565064-1.918549 1.933594-3.674897.378479-5.196747-.643677-8.825135-5.927032-17.541474-12.015961-26.358155-17.955749-10.67221-7.189789-21.883636-13.425415-34.32434-16.932679-14.10846-3.977447-27.310181-1.346374-39.483765 6.685761-2.498383 1.648437-4.955322 3.362183-7.391663 5.10141-2.55606 1.824737-2.854827 3.813843-.567443 6.212829 17.993713 18.871186 39.305572 25.168885 64.462829 17.20633 1.814423-.57428 3.633087-1.749756 7.189575-.146027-9.206909 7.325501-18.596008 11.485687-30.018371 12.112946zM712.010498 521c.070801-8.490967.004761-16.48642.267273-24.471039.134888-4.102051-1.401855-5.6987-5.517944-5.576355-6.15448.182923-12.320557-.059204-18.481446-.042236-3.858886.01062-5.697265-1.43811-5.590149-5.6651.296021-11.674134-1.250183-10.588776 10.291016-10.595886 20.64801-.012696 41.296753.046844 61.943237-.140137 3.737061-.033844 5.01941 1.317779 5.222596 4.842315.627929 10.888703.202148 11.430146-10.847901 11.534943-3.829651.036316-7.659973-.009552-11.48999.000122-7.569458.019165-7.593506.024323-7.603394 7.380249-.028686 21.481476-.030517 42.962982-.05542 64.444428-.008972 7.736328-.025329 7.736267-7.751525 7.663269-9.294007-.087769-9.313843-.086304-9.936402-8.929016-.936645-13.305481-.176391-26.631653-.449951-40.445557z"/>
  <path fill="#ffffff" d="M547.989563 338.012329c9.832642-2.371246 19.877441-3.852081 29.131348-8.485535 17.804565-8.914825 28.022094-23.452148 32.601074-42.417541.429016-1.776886.685181-3.594849 1.049255-5.388123 1.340393-6.60202.63086-7.35202-6.318176-7.042175-7.63269.340393-15.269897.579163-22.904663.875122-1.19513.046356-2.346741.046204-3.394409-1.530823 2.993286-4.785522 8.386474-6.276001 13.190918-7.454803 9.999633-2.453522 20.261779-3.842529 30.423706-5.625763 3.666137-.643341 5.592407 1.190063 5.252502 4.700531-1.977905 20.427643-3.469421 41.079285-18.620788 57.195465-15.645874 16.64212-34.980591 22.086243-57.206238 18.490265-1.560608-.252564-2.990662-.597534-3.147339-2.954803-.030884-.391511-.04834-.371979-.05719-.361817zm69.468018 65.681641c-22.227051 1.496704-39.695618-6.724823-53.045533-23.78418-1.361816-1.740234-5.201782-3.447967-3.188415-5.848083 2.159668-2.574341 4.772217.632995 6.90332 1.856048 9.793518 5.620361 19.277039 11.496155 30.914429 13.26767 15.899292 2.420288 30.018371-1.342865 43.152649-9.916352 9.868835-6.441925 9.625854-6.399871 2.051697-15.208343-3.410157-3.965912-8.074158-6.402588-11.353333-10.434784-1.025269-1.260681-2.621399-2.089783-2.517883-4.144073 1.791992-1.801026 3.643676-.671509 5.450805-.002594 12.705628 4.70285 22.777954 13.56903 33.529541 21.340332 3.029419 2.189727 1.343811 4.468048-.7724 6.111999-6.302856 4.896484-12.817077 9.523316-19.070678 14.480286-9.298523 7.370605-19.941345 11.063781-32.054199 12.282074zm35.497375 86.319458c.001953-.996338.002014-1.49585.004517-1.995362.084533-16.984619-1.017212-12.66394 13.568054-13.438751 3.294006-.175018 4.573425 1.33429 4.578674 4.378418.007446 4.328797.010254 8.657593.008911 12.986389-.007446 23.643463-.010559 47.286896-.029174 70.930329-.00586 7.44165-.372925 7.769897-8.010193 7.575561-9.970581-.253662-10.03003-.25354-10.055115-10.508545-.05658-23.143676-.04834-46.287475-.065674-69.928039zM531.468994 288.556152c3.329956-19.181549-2.485596-35.443329-13.700928-50.250549-2.059997-2.719635-3.580871-3.735855-6.645996-.84964-5.172607 4.870682-10.738617 9.303543-15.102295 15.002823-1.1539 1.507004-2.308563 3.32785-4.655059 3.328812-1.981354-1.353134-.812622-2.971192-.433136-4.484742 2.122314-8.464782 7.901977-14.920471 12.283813-22.131561 2.413025-3.971039 5.195679-7.730194 7.979248-11.459778 2.78772-3.735077 5.497315-4.118911 8.026001-.427368 7.931824 11.579498 18.578064 21.315231 23.131653 35.217545 4.737488 14.463577 5.055969 28.609359-.811279 42.797195-4.023499 9.729248-9.513672 18.229431-18.733521 23.847412-.980835.597687-1.822449 1.519165-4.190552.444245 4.586975-10.035401 10.895203-19.502594 12.852051-31.034394zm-85.542145-7.442932c-8.332153-4.37445-17.272277-4.684418-25.880432-6.32431-2.392517-.45578-2.597931 1.315887-2.583587 3.182678.067749 8.806275-.45932 17.63205 1.320221 26.363983.380554 1.867432 1.174102 4.465058-1.070221 5.39798-2.654938 1.103577-3.782746-1.668854-4.73169-3.399658-5.534973-10.095734-7.50116-21.24765-9.207916-32.452606-.550537-3.614197-.942566-7.254334-1.565979-10.855133-.680328-3.929657.709717-5.82956 4.799164-5.254334 10.6987 1.504852 21.454559 2.835999 31.834472 5.91861 15.064789 4.473938 26.455048 13.652466 33.759613 27.674225 1.453095 2.789367 2.439454 5.720397.57193 9.664459-8.544464-7.683136-16.378357-15.640137-27.245575-19.915894zM322.050476 631.57605c-.007904-9.972412-.007904-19.489502-.007904-29.006653.619812-.112427 1.239624-.224854 1.859406-.337341 6.051178 5.560424 9.673736 13.235229 15.856414 19.444397 5.760498-6.395325 9.720032-13.964722 15.563721-19.739197 2.23053 1.213318 1.923126 2.854248 1.928864 4.288086.033844 8.498169.0372 16.996887-.036866 25.494629-.013458 1.546875.454346 3.93164-1.817321 4.000061-2.543702.076599-2.335297-2.440064-2.361329-4.171448-.094146-6.254334-.037048-12.510864-.037048-20.267822-3.989807 5.116272-7.19284 8.875305-9.990387 12.915161-2.485351 3.588989-4.375976 3.27478-6.731293-.046509-2.871582-4.049255-5.979553-7.930847-9.490387-12.549499-1.862426 8.56372.890015 16.747619-1.759216 24.40625-3.025848-.503968-2.69873-2.416932-2.976654-4.430115zm83.621826-462.743103c-10.77594-3.32106-16.059631-10.673859-14.97229-20.362427 1.026642-9.14769 8.079804-16.020569 17.071228-16.634842 10.762696-.735275 20.429932 8.210693 20.288666 18.774887-.153137 11.449646-9.668976 19.381134-22.387604 18.222382m1.229676-32.621689c-9.174866 1.916519-13.480072 8.616135-11.613099 18.071838 1.473755 7.464051 9.12851 12.13179 17.158753 10.463074 6.688537-1.389893 11.764526-8.188446 11.241852-15.056915-.637207-8.373123-6.578675-13.412705-16.787506-13.477997zm82.652069 331.628159c-3.643555-.680237-4.201081-2.506592-2.446839-5.05185 3.301056-4.789551 6.705567-9.508484 10.113312-14.223358 1.102509-1.525452 2.579742-1.953705 4.39389-1.186829 3.67511 1.553711 7.399567 2.992432 11.056244 4.587311 2.992371 1.305023 3.890808 3.005249.860657 5.419953-3.508179 2.795654-7.023315 5.601287-10.327606 8.629333-4.059906 3.720459-8.675659 2.400421-13.649658 1.82544zm-14.066864-340.694024c.441955 4.46827 2.775512 8.510308.825683 12.743355-3.108093-.116897-3.169342-2.198242-3.454803-3.905182-1.454956-8.700325-2.695526-17.438484-4.279969-26.114311-.763793-4.182167.841584-5.887833 4.818177-6.217483 2.795685-.231759 5.479492-1.00692 8.379516-.130616 7.902161 2.387757 10.515808 9.434273 5.391907 15.890641-2.069061 2.607147-2.18689 4.468483-.157684 6.979187 1.876159 2.321373 3.42865 4.909889 5.05426 7.425605.72049 1.114991 1.568878 2.462647-.052948 3.454209-1.437073.878647-2.629608-.078903-3.40448-1.19397-2.372803-3.414719-4.528198-6.983002-6.955872-10.356445-2.404052-3.34066-4.227722-2.974892-6.163787 1.42501m8.014557-10.013649c2.021209-2.414909 2.759735-4.977531.369842-7.5186-2.420868-2.574028-5.640564-2.942123-8.681915-1.74968-3.445282 1.350815-.81543 4.322831-1.104431 6.540062-.104187.799332.129943 1.63871.170593 2.461747.120697 2.445243 1.609588 2.954429 3.722931 2.758758 1.877838-.173874 3.485931-.920875 5.52298-2.492287zm108.683624 28.06749c3.277221-4.41391 6.328308-8.552826 9.365295-12.701996 1.13562-1.551468 2.364441-3.041061 4.48999-1.724243 10.070618 6.239014 16.357666 16.951126 9.025269 28.049911-7.863342 11.902451-21.64801 10.30835-31.271057.901566-1.533875-1.49939-.541626-3.067856.520569-4.439102 2.538818-3.27739 5.091247-6.544174 7.869934-10.086136m10.757629-7.49881c-4.32489 5.668488-8.6474 11.338761-12.976257 17.004212-1.145691 1.49945-2.36969 2.950943-.238526 4.645401 4.406617 3.503585 9.140564 5.376968 14.76178 3.146698 5.822571-2.31012 9.127136-6.841629 9.695984-12.807251.524719-5.504181-2.344238-9.837189-6.910339-12.972962-1.489868-1.023178-2.760926-.923233-4.332642.983902zM319.785583 449.18512c3.572999 1.690307 7.304139 2.308929 9.83899 5.1333-7.779541 12.202454-19.927735 17.057373-29.431214 11.481842 3.192292-6.343109 7.603608-11.895263 11.996613-17.392089 2.253143-2.819306 4.850861-.076355 7.595611.776947zm166.448548 179.809875c-7.044006 8.536011-15.937561 10.439087-23.544342 5.328674-7.771912-5.221313-10.114746-15.210022-5.486572-23.392395 4.611084-8.152099 14.281219-10.864135 22.966796-6.440979 7.291718 3.713196 10.83252 13.745179 7.566956 21.48584-.387512.918579-.877716 1.793823-1.502838 3.01886m-4.46994-18.196838c-4.441712-4.517639-9.61435-5.835633-15.447785-3.156678-5.021637 2.306031-7.561401 6.651856-7.602844 11.950379-.045288 5.788086 2.831665 10.120361 8.40506 12.395203 4.640137 1.893859 10.838104.577087 14.258423-3.105591 4.30014-4.630005 4.604736-10.858032.387146-18.083313zm166.309295-440.882614c.739991.921478 1.291443 1.549194 1.777588 2.223953.740418 1.027405 1.13208 2.164856-.031189 3.09729-1.168152.936371-2.280151.274704-3.065124-.633286-2.503357-2.895706-5.110474-5.73143-7.320984-8.843536-3.167664-4.459564-5.223633-.975311-7.598694.766235-2.563232 1.879578-4.984619 3.68808-1.684998 7.075119 1.968506 2.020691 3.658265 4.316437 5.43274 6.52118.93042 1.156036 2.21051 2.457382.606384 3.866012-1.582397 1.389465-2.739685.056976-3.758972-1.070846-2.761658-3.055756-4.898255-6.678101-8.066895-9.218155-.557007.13089-.944519.113144-1.18164.293304-8.674012 6.591446-8.670044 6.592377-1.754578 15.035294 1.266052 1.545669 2.558899 3.073562 3.74292 4.680694.703003.954209 1.286682 2.107407.090149 3.107422-1.159485.969086-2.25885.372193-3.050537-.565216-3.759949-4.452087-7.474488-8.94281-11.177307-13.442795-1.450074-1.762298-1.080811-3.405044.582336-4.788284 7.554016-6.28273 15.146973-12.518845 22.679871-18.826691 2.287475-1.915481 3.923217-.943329 5.495483.915833 2.687988 3.178421 5.377075 6.355896 8.283447 9.806473zm165.04419 297.974044c-4.69397.487702-10.30249 1.32248-12.475342-1.994201-2.043091-3.118469 2.946472-6.388611 5.021851-9.39383 7.098693-10.279174 7.217529-10.197082 18.629028-4.923278 5.362121 2.478118 5.466736 3.224823.906372 6.87091-3.888611 3.109009-7.796021 6.19455-12.081909 9.440399zM549.751648 111.166245c-.357239.359489-.460388.49475-.526184.646255-4.322876 9.945381-4.216065 10.063629 6.178833 12.911324 2.138916.585952 6.174682.374374 5.151794 3.737632-.844238 2.776001-3.997131.482468-6.115112.085923-.811584-.151947-1.586914-.497605-2.379028-.754036-7.406189-2.397393-7.167359-2.320504-9.52472 5.008491-1.240539 3.856934-.167541 5.277954 3.477967 6.368561 4.329529 1.295273 9.057861 1.806991 12.79718 4.608871-.660278 2.897736-2.396484 2.499909-3.999329 2.031403-4.951843-1.447342-9.866821-3.021027-14.818603-4.468521-2.870239-.83902-3.531738-2.507141-2.649536-5.306107 2.852111-9.049476 5.588012-18.135948 8.313903-27.224632.602662-2.009499 1.691224-3.531151 3.874878-2.902481 5.591004 1.609695 11.119568 3.443436 16.63678 5.295494.929383.311981 1.615967 1.194153 1.059693 3.128944-6.048768 1.340851-11.185975-3.918235-17.478516-3.167121zm16.270203 510.153152c-6.354126-.230896-4.643494 4.212524-4.845826 7.380859-.246643 3.860108 2.400879 3.995179 5.299805 4.110108 3.772339.149658 7.804993-1.163697 11.312927 1.129333-.493713 2.597473-2.164856 2.360413-3.605163 2.376282-4.154053.045776-8.316345-.134583-12.461243.066345-3.748474.181641-4.989746-1.512207-4.937073-5.044128.11377-7.642517.216248-15.2948-.053405-22.929749-.15271-4.324218 1.326538-6.242798 5.708374-5.736938.967529.111694 1.969848-.077271 3.256713-.143189.735901-3.625427 1.445374-7.415954 6.273743-8.030639 1.307678 3.503662-2.625366 4.582275-2.803406 7.408447 2.195801 2.077331 5.908631-.628723 7.98346 1.990967.064758 2.641357-1.937195 2.630371-3.442139 2.82489-2.130493.27539-4.30841.2052-6.466736.23999-5.572509.089783-7.803222 3.427063-5.934509 8.72406.842957 2.389465 2.788818 1.806702 4.527649 2.079163 3.207764.502624 6.845947-1.262207 10.017334 1.730835-2.893066 3.326416-6.403626 1.324218-9.830505 1.823364zM449.647339 110.353226c2.34671-2.379792 3.322388-.839142 4.067963 1.087372 2.643432 6.830429 5.489624 13.595176 7.804687 20.536331 2.352997 7.054947-.785858 12.758575-7.908478 15.428039-6.74292 2.527176-12.751678.079743-15.611236-6.641342-2.736664-6.432159-5.230011-12.969002-7.758667-19.487633-.580353-1.496147-1.558106-3.482826.57843-4.344841 2.228485-.899101 2.715179 1.318596 3.302704 2.788224 2.409485 6.027183 4.674377 12.112579 7.118164 18.125473 2.410858 5.931884 5.997741 7.754318 11.248962 5.926986 4.575897-1.592346 6.62912-5.899612 4.771179-11.521408-2.138824-6.471679-4.862426-12.749344-7.288971-19.127685-.288635-.758736-.306671-1.620446-.324737-2.769516zm150.740356 515.49974c1.087036 2.46637 2.027771 4.598084 2.952332 6.736817.472046 1.092102 1.018799 2.376037-.258972 3.131225-1.531617.905213-2.546997-.265136-3.164002-1.487732-1.575561-3.12146-3.057678-6.291504-4.513428-9.471313-.83258-1.818543-1.970153-3.217651-4.153747-2.817688-2.366211.433533-1.664612 2.485107-1.86322 4.039856-.42096 3.294617 1.127624 6.842956-.786743 9.981933-3.166687-.366638-2.862305-2.471313-2.875-4.212585-.05951-8.162903.024169-16.327209-.070618-24.489502-.036255-3.12207 1.158813-4.6828 4.388916-4.562378 2.488464.092713 4.959412-.07959 7.405334.766052 7.196228 2.487854 9.310913 10.269898 3.671997 15.342835-2.698852 2.428039-2.614074 4.20343-.732849 7.04248m-6.386291-19.203064c-1.811585-.217346-4.180664-.661194-4.308289 1.812378-.146057 2.830933-1.06427 6.100952.78418 8.513977 1.236755 1.614502 3.721497.946717 5.565674.215576 2.290039-.907775 3.797668-2.567199 3.766418-5.238708-.039184-3.348022-2.4281-4.361023-5.807983-5.303223zM375.66925 181.990601c-5.350463 1.862823-9.335479.440338-11.786712-4.129609-2.311005-4.308502-1.441284-8.434951 2.167145-11.762695 2.214202-2.041962 4.535003-4.366333 7.924041-2.137497-.170715 2.472489-2.215576 2.589935-3.447815 3.554444-2.629058 2.05783-4.97937 4.40213-2.979034 7.956192 2.065247 3.669265 5.241669 3.531631 8.58786 1.634155 2.449219-1.388809 4.783173-2.954575 7.580475-3.714859 4.247406-1.154419 7.953949-.603073 10.798767 2.948135 3.011078 3.758728 3.445404 7.769043.89682 12.028702-2.268463 3.791534-5.522125 6.11911-9.803528 7.066833-1.396209.309067-2.85791.283143-3.374176-1.247512-.588318-1.744278.873047-2.227219 2.192841-2.641816 3.057892-.960601 5.943298-2.071945 7.381897-5.369277 1.098419-2.517655 1.161896-4.840592-.555206-7.032105-1.812531-2.313293-4.404572-2.520843-6.802674-1.592361-2.922699 1.131591-5.619415 2.846832-8.780701 4.43927zm144.317078-43.71695c-8.816223-.337677-14.566467-4.402817-17.587555-12.22216-2.751129-7.120796-1.094971-13.532089 3.819672-19.008759 5.154236-5.743622 11.762146-7.210075 19.139404-5.2248 1.262451.339737 2.464966.979172 3.6203 1.615982.909119.501106 1.580872 1.309899 1.116578 2.45958-.448365 1.110382-1.458069 1.364486-2.484925 1.116081-1.288147-.31163-2.524719-.832726-3.790222-1.242912-6.016113-1.950089-10.968872.249801-14.845459 4.579055-4.02008 4.489571-4.497467 9.900383-2.006225 15.41298 2.41687 5.348037 6.497558 8.363159 12.527404 8.207748 1.984131-.051148 3.964844-.393387 5.9375-.671188 1.252137-.1763 2.449524-.200943 2.76239 1.307006.230713 1.112259-.537841 1.915619-1.469055 2.375519-1.975708.9758-4.09967 1.358063-6.739807 1.295868zm3.383484 480.22702c.011475-4.228515.02533-8.054138.092041-11.878906.025208-1.444519-.295593-3.409973 1.843689-3.413696 2.112976-.003662 1.75177 1.997986 1.933777 3.418335.020996.16449-.005737.33612.023193.498413.596619 3.342041-1.802429 7.955505 1.429016 9.840271 3.807129 2.220459 8.78241.735718 13.249207.702148 2.079346-.015625 2.759399-1.549438 2.766907-3.437561.008545-2.164612-.079712-4.335876.063171-6.491699.111816-1.6875-.626282-4.401245 1.887878-4.417175 2.786683-.017761 2.241089 2.824524 2.221375 4.664001-.046265 4.322632-.400818 8.641052-.49939 12.964234-.091125 3.993896-.005798 7.99176-.010376 11.987854-.001281 1.138183.178894 2.352844-1.267273 3.30719-3.141845-.782227-2.261474-3.485413-2.310913-5.531495-.253967-10.522827 1.288697-9.253784-9.348694-9.392089-8.085083-.105164-7.981567-.055909-8.186706 8.123169-.055603 2.218383 1.302002 6.120056-2.011658 6.1651-3.241516.044189-1.516418-3.684693-1.657776-5.746888-.249511-3.640014-.148437-7.304016-.217468-11.361206zm99.382813-13.435119c1.294677-2.319031 2.961792-4.119995 4.330749-.964539 4.295044 9.900269 8.2229 19.960266 12.229736 29.983765.189759.474853-.227295 1.192322-.401855 1.97699-4.082459-.272461-4.176087-3.754883-4.913696-6.071961-1.737305-5.458008-4.929261-7.84021-10.719178-7.120605-2.607727.323974-4.350402 1.053039-5.251831 3.662597-.812011 2.350403-1.886596 4.621277-2.991211 6.855042-.608825 1.23114-.986084 3.414612-2.952636 2.579773-2.21399-.939881-.929322-2.849121-.332642-4.297608 3.039978-7.37915 6.151794-14.728759 9.224304-22.094604.575379-1.379456 1.086182-2.785828 1.77826-4.50885m4.862731 9.844421c-.868469-1.210388-.639648-3.292053-2.943359-3.617554-1.079529 2.297181-2.892822 4.290039-2.143127 8.25586 1.885864-1.933594 6.266845 1.923279 5.086486-4.638306zm-258.177856 9.58783c3.207764-7.780396 6.261017-15.205017 9.31427-22.629639.661987-.035217 1.323975-.070435 1.985962-.105652 4.61261 11.136841 9.22522 22.273743 14.245209 34.394165-5.633118-.783447-5.265686-4.465942-6.561768-6.827759-1.526092-2.780883-1.942108-5.937744-6.453003-6.500732-5.615265-.700867-8.723877.74585-10.466034 6.178894-.7948 2.478638-1.136902 5.614868-4.76828 7.305542-1.804596-4.646606 1.734406-7.809692 2.703644-11.814819m8.968292-11.315247c-.501709 1.656311-1.939148 3.092224-1.214752 5.136597 1.886231.723205 3.727539.901428 5.973145-.396607-.728638-1.953125-1.280854-4.002929-2.23639-5.843383-1.076171-2.072937-1.642334-.318665-2.522003 1.103393zm323.16037 5.336975c.940613 2.249329-.465759 2.594544-1.829224 2.703552-1.820739.145569-3.659667.080079-5.490722.076478-6.621155-.012879-8.41034 2.382324-6.828308 8.888427.513672 2.112183 1.913452 2.526978 3.688415 2.544373 2.99646.02948 5.994812-.045899 8.98938.034485 1.743958.046814 3.809998-.338013 4.466553 2.430786-2.280518 2.362366-5.236817 1.086975-7.810059 1.099853-13.025207.065308-13.026245-.009643-13.031433-12.835144-.002197-5.327942.109253-10.659057-.041138-15.982788-.095092-3.366516 1.13617-5.036133 4.630799-4.765014 5.149536.399536 10.444153-.801819 15.46643.723083.027039 3.046326-1.75653 3.270081-3.390747 3.4021-2.15271.173889-4.324585.129455-6.488403.142944-5.888184.036682-8.001587 2.901794-6.428772 8.52771.604736 2.163208 2.195313 2.186951 3.885803 2.276978 3.307007.176025 6.652832-.465882 10.211426.732177zm-288.31546 13.964478c2.898865-1.186341 4.577606-2.996826 4.268494-5.836548-.303498-2.787781-2.486451-4.222534-4.865906-5.188049-2.611145-1.059388-5.401978-1.716858-7.706452-3.438111-3.251342-2.428467-3.774963-5.75-2.692627-9.370788 1.052857-3.522095 3.513154-5.691834 7.250672-5.818482 3.575622-.121155 7.313415-.173279 9.010345 4.041077-1.715423 2.327148-3.419861.860351-5.078369.502991-2.93042-.631592-5.882141-.802674-7.046234 2.702697-1.135559 3.419495.964935 5.272522 3.909973 6.404847 3.094757 1.189819 6.284577 2.154663 8.71637 4.636779 2.959747 3.021057 3.217895 6.439209 1.562774 10.09198-1.880127 4.149231-6.230957 6.243592-11.230987 5.579224-4.512451-.599609-6.763153-2.415405-7.670471-6.493103 4.065643-.570435 7.092437 3.997803 11.572418 2.185486zm21.523163-29.250855c4.565704-.755066 8.50412-.712158 11.159179 3.327515-1.847473 2.633179-3.595092 1.068481-5.189666.647888-3.048645-.804321-5.90213-.589233-7.174408 2.592285-1.45224 3.631592.975006 5.524353 4.037262 6.760315 1.541015.622071 3.128509 1.142945 4.62796 1.851441 5.543976 2.620056 7.705841 6.697998 6.179932 11.510193-1.53302 4.834716-7.025574 7.864013-12.435975 6.831726-.813476-.155274-1.670013-.311951-2.389343-.690735-2.111969-1.112061-5.710144-2.004578-4.480682-4.867859 1.326935-3.090271 3.573791.159851 5.284485.8255 4.073944 1.585144 8.067352.59314 9.507843-2.640747 1.500518-3.36853-.293244-6.426513-4.87677-8.29071-1.231751-.500916-2.47226-.981262-3.71698-1.449097-3.759674-1.413147-6.213745-3.964722-6.334046-8.093078-.112762-3.869568 1.849274-6.611268 5.801209-8.314637zm221.58374-.264282c6.31012 2.251404 9.15564 5.924622 8.468445 10.481812-.678589 4.5-4.136841 7.41864-10.104004 7.759094-3.543152.202087-4.386353 1.76831-4.55304 4.985596-.167846 3.238769 1.366333 6.908325-1.479248 9.763916-2.718017-.617981-2.574279-2.650635-2.573059-4.401429.005432-7.634094.485596-15.288147.070191-22.895507-.301941-5.529419 2.224121-6.557251 6.768371-5.964173.985718.128662 1.98877.123779 3.402344.270691m3.628967 6.669006c-.734985-.665283-1.362549-1.598266-2.225525-1.944458-2.375-.952697-5.61615-2.866821-6.897644.44983-1.063415 2.752319-2.334533 7.015747.943604 9.134765 2.634582 1.703064 5.829407.121643 8.015076-2.261536 1.243835-1.356201 1.056213-3.070556.164489-5.378601zm-142.316101-3.660888c-3.194885 1.942505-7.446014-.613282-9.53067 2.676025-1.751495 2.763672.172974 6.174378-.322601 9.297058-.628327 3.959595-.484528 7.928711-.027619 11.913697.258911 2.257995.150757 4.566528-1.848816 6.110168-2.880401-.87146-2.188903-2.994385-2.209747-4.655029-.08139-6.474976-.163605-12.955078.012634-19.42627.098999-3.634094-1.29425-5.128235-4.936157-5.0401-2.320251.056213-5.018738.541809-6.488312-1.956116.391571-2.092712 1.806824-2.137878 3.120575-2.145691 6.641754-.039245 13.28418-.064941 19.925537-.002502 1.825013.017151 4.003235.045044 2.305176 3.22876zm153.21637 26.585266c-.031922-8.582153-.067627-16.710632-.017517-24.838684.01062-1.722901-.519837-4.258179 1.933105-4.438416 2.644531-.194336 2.252564 2.4021 2.263977 4.098999.055725 8.29364.022705 16.588196-.04602 24.881897-.012024 1.449341.013305 3.295594-1.943421 3.507691-1.769897.191833-1.904785-1.459656-2.190124-3.211487z"/>
</svg>